<svg width="24" height="24" viewBox="0 0 24 24" fill="none" xmlns="http://www.w3.org/2000/svg">
<g filter="url(#filter0_d_169_46)">
<path d="M13.1751 8L19.2501 1.925C19.3866 1.76559 19.4579 1.56052 19.4498 1.35079C19.4417 1.14106 19.3548 0.942114 19.2064 0.793702C19.0579 0.64529 18.859 0.558345 18.6493 0.550244C18.4395 0.542144 18.2345 0.613482 18.0751 0.750004L12.0001 6.825L5.92506 0.741671C5.76564 0.605149 5.56058 0.533811 5.35085 0.541912C5.14112 0.550013 4.94217 0.636956 4.79376 0.785368C4.64534 0.93378 4.5584 1.13273 4.5503 1.34246C4.5422 1.55219 4.61354 1.75725 4.75006 1.91667L10.8251 8L4.74173 14.075C4.65449 14.1497 4.58364 14.2416 4.53362 14.345C4.4836 14.4484 4.45549 14.561 4.45106 14.6758C4.44663 14.7906 4.46597 14.905 4.50786 15.0119C4.54976 15.1189 4.61331 15.216 4.69452 15.2972C4.77573 15.3784 4.87285 15.442 4.97979 15.4839C5.08673 15.5258 5.20117 15.5451 5.31594 15.5407C5.4307 15.5362 5.54331 15.5081 5.6467 15.4581C5.75009 15.4081 5.84202 15.3372 5.91673 15.25L12.0001 9.175L18.0751 15.25C18.2345 15.3865 18.4395 15.4579 18.6493 15.4498C18.859 15.4417 19.0579 15.3547 19.2064 15.2063C19.3548 15.0579 19.4417 14.8589 19.4498 14.6492C19.4579 14.4395 19.3866 14.2344 19.2501 14.075L13.1751 8Z" fill="white" fill-opacity="0.7" shape-rendering="crispEdges"/>
</g>
<defs>
<filter id="filter0_d_169_46" x="0.450439" y="0.54129" width="23" height="23" filterUnits="userSpaceOnUse" color-interpolation-filters="sRGB">
<feFlood flood-opacity="0" result="BackgroundImageFix"/>
<feColorMatrix in="SourceAlpha" type="matrix" values="0 0 0 0 0 0 0 0 0 0 0 0 0 0 0 0 0 0 127 0" result="hardAlpha"/>
<feOffset dy="4"/>
<feGaussianBlur stdDeviation="2"/>
<feComposite in2="hardAlpha" operator="out"/>
<feColorMatrix type="matrix" values="0 0 0 0 0 0 0 0 0 0 0 0 0 0 0 0 0 0 0.25 0"/>
<feBlend mode="normal" in2="BackgroundImageFix" result="effect1_dropShadow_169_46"/>
<feBlend mode="normal" in="SourceGraphic" in2="effect1_dropShadow_169_46" result="shape"/>
</filter>
</defs>
</svg>
